<svg width="159" height="130" viewBox="0 0 159 130" fill="none" xmlns="http://www.w3.org/2000/svg">
    <g clip-path="url(#clip0_12286_33562)">
        <path d="M75.4464 128.724C129.135 134.157 156.805 120.95 158.457 89.1023C160.934 41.3305 119.207 46.4912 107.055 33.9008C94.9021 21.3104 108.516 39.2029 85.112 13.1126C69.5088 -4.28119 48.7179 -4.37052 22.7392 12.8453C1.78452 29.9 -0.481821 52.2664 15.9395 79.9436C32.3608 107.62 52.1962 123.88 75.4464 128.724Z"
              fill="#FAFBFF"/>
        <path d="M9.58379 98.448L7.90751 100.124L5.16386 97.3793L2.41456 100.129L0.738281 98.4523L3.48617 95.703L0.74252 92.9593L2.4188 91.2816L5.16245 94.0267L7.91175 91.2788L9.58803 92.9551L6.84014 95.7044L9.58379 98.448Z"
              fill="#E6E6E6"/>
        <path d="M147.35 38.3911C144.616 38.3911 142.402 36.1738 142.402 33.4406C142.402 30.7075 144.616 28.4902 147.35 28.4902C150.084 28.4902 152.297 30.7075 152.297 33.4406C152.297 36.1738 150.084 38.3911 147.35 38.3911ZM147.35 35.5696C148.52 35.5696 149.47 34.6177 149.47 33.4406C149.47 32.2636 148.52 31.3117 147.35 31.3117C146.179 31.3117 145.229 32.2636 145.229 33.4406C145.229 34.6177 146.179 35.5696 147.35 35.5696Z"
              fill="#E6E6E6"/>
        <path d="M51.0452 10.4768C61.8728 10.4768 63.2262 16.8765 63.2262 23.2648V30.2343C63.2262 31.3387 64.066 32.2361 65.0994 32.2361L128.897 31.6812C129.931 31.6812 130.77 30.7845 130.77 29.6801V22.1664C130.77 15.3126 125.572 9.75537 119.16 9.75537C118.726 9.75537 50.5918 10.4768 51.0452 10.4768Z"
              fill="#D8DAE5"/>
        <path d="M51.043 11.6485C51.043 12.6933 51.8923 13.5413 52.9378 13.5413C119.173 13.5413 119.185 13.5406 119.198 13.5413C123.538 13.5487 127.055 17.0961 127.062 21.4752V30.4539H128.935C129.968 30.4539 130.807 29.608 130.807 28.5652V21.4752C130.835 14.9996 125.654 9.72794 119.236 9.7002H119.16H118.461C118.289 9.71035 118.122 9.73809 117.952 9.75636H52.9351C51.8902 9.75636 51.043 10.6036 51.043 11.6485Z"
              fill="#D8DAE5"/>
        <path d="M119.163 13.3086V9.75586H51.7028C42.8635 9.76939 35.701 16.992 35.6875 25.9045V118.634C35.6875 119.676 36.5266 120.522 37.56 120.522H95.3202C104.148 120.494 111.293 113.274 111.299 104.373V21.4618V21.3731C111.354 17.0306 114.857 13.3208 119.163 13.3147C119.181 13.3147 119.197 13.3093 119.214 13.3086H119.163Z"
              fill="white"/>
        <path d="M51.6651 9.75516C42.8251 9.76937 35.662 16.992 35.6484 25.9044V80.1924L75.9824 9.70508L51.6651 9.75516Z"
              fill="#EDEFF5"/>
        <path d="M35.6845 47.8005V27.1009C35.6987 18.1878 42.8612 10.9659 51.7012 10.9517H119.161M30.8906 117.954C34.9192 117.954 35.648 113.673 35.648 110.968C35.648 88.8484 35.6845 73.2121 35.6845 67.6027M36.0371 54.1245V56.6114"
              stroke="#E6E8F0" stroke-width="7.2" stroke-miterlimit="10" stroke-linecap="round"/>
        <path d="M119.162 9.69922H118.462C112.34 10.0721 107.56 15.1847 107.552 21.3733V21.55V104.326C107.54 109.966 103.762 114.89 98.3523 116.315C97.7609 116.469 97.1552 116.545 96.5502 116.551V116.553H96.5035H96.4555H26.4297C29.2408 119.034 32.9181 120.543 36.9466 120.546H36.9717H57.1617H95.3193C95.7307 120.546 96.3669 120.546 96.7796 120.483C97.5071 120.416 98.2285 120.295 98.9384 120.119C106.19 118.415 111.326 111.9 111.335 104.389V21.4363V21.3483C111.389 17.2778 114.481 13.9084 118.499 13.5403C118.721 13.5281 119.146 13.5295 119.367 13.5403L119.162 9.69922Z"
              fill="#E6E6E6"/>
        <path d="M119.162 9.69922H118.463C112.34 10.0728 107.563 15.1847 107.554 21.3734V21.55V104.326C107.542 109.966 103.764 114.891 98.3544 116.315C97.1261 116.635 95.8363 116.635 94.6087 116.315C89.1821 114.871 85.4053 109.912 85.4202 104.251V101.732C85.4276 100.689 84.5953 99.8365 83.5612 99.8304H71.6922H62.1498H47.4385H32.0357H22.8295C21.7962 99.8304 20.957 100.677 20.957 101.72V104.39C20.9489 113.305 28.11 120.539 36.9486 120.546H36.9723H57.1623H95.3193C95.7314 120.546 96.3682 120.546 96.7803 120.483C97.5085 120.416 98.2305 120.295 98.9404 120.119C106.192 118.416 111.327 111.9 111.336 104.39V21.437V21.3483C111.389 17.2785 114.483 13.9077 118.501 13.541C118.734 13.5281 118.967 13.5281 119.2 13.541C123.541 13.5477 127.058 17.0958 127.065 21.4742V30.4536H128.937C129.971 30.4536 130.811 29.6077 130.811 28.5649V21.4742C130.838 14.9986 125.657 9.72764 119.238 9.69922H119.162Z"
              fill="#E6E8F0"/>
        <path d="M118.937 85.6801C120.212 84.4086 122.276 84.4106 123.551 85.6828L139.649 101.754C140.919 103.022 140.92 105.08 139.652 106.351L139.646 106.357C138.371 107.628 136.307 107.627 135.032 106.354L118.934 90.2832C117.664 89.0143 117.662 86.9564 118.931 85.6862L118.937 85.6801Z"
              fill="#EDEFF5"/>
        <path d="M122.37 89.0043C132.31 79.8958 132.999 64.4704 123.909 54.5507C114.819 44.6304 99.3923 43.9727 89.4521 53.0812C79.5119 62.1897 78.8216 77.6155 87.9118 87.5358C97.0016 97.4555 112.429 98.1128 122.37 89.0043Z"
              fill="#CAD8E9"/>
        <path d="M122.37 89.0043C132.31 79.8958 132.999 64.4704 123.909 54.5507C114.819 44.6304 99.3923 43.9727 89.4521 53.0812C79.5119 62.1897 78.8216 77.6155 87.9118 87.5358C97.0016 97.4555 112.429 98.1128 122.37 89.0043Z"
              stroke="#EDEFF5" stroke-width="7.2" stroke-miterlimit="10"/>
        <path d="M50.7734 83.3604H69.0821" stroke="#C1C4D6" stroke-width="7.2" stroke-miterlimit="10"
              stroke-linecap="round"/>
        <path d="M50.7734 66.3052H69.0821" stroke="#C1C4D6" stroke-width="7.2" stroke-miterlimit="10"
              stroke-linecap="round"/>
        <path d="M50.7734 49.252H92.2734" stroke="#C1C4D6" stroke-width="7.2" stroke-miterlimit="10"
              stroke-linecap="round"/>
        <path d="M50.7734 30.9805H97.0687" stroke="#C1C4D6" stroke-width="7.2" stroke-miterlimit="10"
              stroke-linecap="round"/>
        <path d="M127.516 82.2621L127.516 82.2621L143.614 98.3335C143.614 98.3335 143.614 98.3335 143.614 98.3336C144.493 99.2113 144.494 100.636 143.616 101.516L143.613 101.52C143.612 101.52 143.612 101.52 143.612 101.52C142.727 102.402 141.295 102.401 140.41 101.518L140.41 101.518L124.313 85.4473C124.313 85.4472 124.313 85.4471 124.312 85.4471C123.433 84.5684 123.432 83.1436 124.31 82.2643L124.315 82.2599C124.315 82.2598 124.315 82.2596 124.315 82.2594C125.2 81.378 126.632 81.3791 127.516 82.2621Z"
              fill="#C1C4D6" stroke="#C1C4D6" stroke-width="2"/>
        <path d="M127.843 51.0983C136.559 60.6095 135.9 75.4024 126.366 84.1391C116.831 92.8758 102.036 92.2434 93.321 82.7322C84.6052 73.2206 85.2651 58.4273 94.7995 49.6906C104.334 40.9539 119.128 41.5867 127.843 51.0983Z"
              fill="white" stroke="#C1C4D6" stroke-width="2"/>
        <path d="M127.041 84.8764C136.982 75.7678 137.67 60.3425 128.581 50.4227C119.49 40.5025 104.064 39.8448 94.124 48.9533C84.1837 58.0618 83.4935 73.4876 92.5837 83.4078C101.674 93.3276 117.101 93.9849 127.041 84.8764Z"
              stroke="#C1C4D6" stroke-width="7.2" stroke-miterlimit="10"/>
        <path d="M110.625 68.048L105.434 73.2387L104.526 72.3314L109.717 67.1397L110.424 66.4326L109.717 65.7255L104.481 60.4891L105.375 59.5948L110.611 64.8314L111.318 65.5386L112.025 64.8314L117.217 59.6402L118.124 60.5479L112.933 65.7398L112.226 66.4469L112.933 67.1539L118.169 72.3903L117.275 73.2841L112.039 68.048L111.332 67.3409L110.625 68.048Z"
              fill="#A9CC3D" stroke="#C1C4D6" stroke-width="2"/>
    </g>
    <defs>
        <clipPath id="clip0_12286_33562">
            <rect width="159" height="130" fill="white"/>
        </clipPath>
    </defs>
</svg>
