<svg fill="none" height="879" viewBox="0 0 1298 879" width="1298" xmlns="http://www.w3.org/2000/svg" xmlns:xlink="http://www.w3.org/1999/xlink"><clipPath id="a"><path d="m0 0h1298v879h-1298z"/></clipPath><g clip-path="url(#a)"><path d="m1204.11 784.63c1.73 2.02 4.09 2.06 6.26 2 12.55-.33 25.13.59 37.68.52 11.86-.07 21.67 1.03 22.91-21.65.26-4.78.76-36.15 2.53-60.01h-84.1c3.17 24.34 6.66 48.88 11.93 72 .62 2.65 1.33 5.43 2.79 7.14z" fill="#fdc510"/><path d="m1230.87 758.17c9.34 0 16.91-7.571 16.91-16.91s-7.57-16.91-16.91-16.91-16.91 7.571-16.91 16.91 7.57 16.91 16.91 16.91z" fill="#fff"/><path d="m1216.61 662.99c-4.18-.96-8.18-2.49-11.69-4.95-6.36-4.45-10.68-12.49-8.87-20.03 3.27-13.61 23.35-18.8 24.7-32.73.54-5.54-2.23-10.83-3.02-16.34s1.87-12.56 7.43-12.77c2.26 10.16 9.05 19.23 18.16 24.27 4.23 2.34 8.97 3.88 12.67 6.99s6.12 8.59 3.81 12.84c-1.59 2.94-4.89 4.43-7.66 6.32s-5.35 5.1-4.34 8.29c.5 1.58 1.79 2.76 3.05 3.85 4.14 3.58 19.51 11.34 13.14 18.73-1.94 2.25-4.94 3.22-7.82 3.96-9.5 2.44-19.37 3.43-29.17 2.93-3.47-.19-6.99-.58-10.39-1.36z" fill="#a7adff"/><path d="m1267.53 700.22h-73.9c-7.6 0-13.81-6.22-13.81-13.81 0-7.6 6.22-13.81 13.81-13.81h73.9c7.6 0 13.81 6.22 13.81 13.81 0 7.6-6.21 13.81-13.81 13.81z" fill="#4b369d"/><path d="m434.58 875.28c239.951 0 434.47-16.619 434.47-37.12s-194.519-37.12-434.47-37.12-434.470015 16.619-434.470015 37.12 194.519015 37.12 434.470015 37.12z" fill="#e3e5fc"/><path d="m1179.98 504.01c10.87-7.6 22.51-18 21.57-31.23-16.55-.4-33.17 3.07-48.18 10.05-5.29-7.01 3.29-16 10.81-20.52 16.3-9.81 32.61-19.62 48.91-29.42-5.72-5.3-13.46-8.37-21.26-8.42-6.06-14.67 22.94-24.42 20.33-40.08-1.37-8.22-11.69-12.3-19.74-10.15s-14.19 8.5-19.89 14.58c3.61-10.34 10.27-19.28 15.57-28.87s9.34-20.67 7-31.37-13.18-20.04-23.79-17.3c-7.33 1.89-12.3 8.58-16.14 15.11-8.36 14.2-14.32 29.8-17.56 45.95-1.94 9.64-7.59 22.66-16.92 19.55-5.04-1.68-7.15-7.48-10.44-11.65-9.21-11.69-29.41-9.27-38.86 2.22s-9.71 28.35-4.93 42.44c2.95 8.7 6.9 20.03-.38 25.63-7.17 5.52-18.61-.79-26.25 4.04-9.24 5.84-4.09 19.77-2.99 30.65 1.31 12.96-4.9 25.32-10.04 37.28-5.14 11.97-9.33 25.78-4.15 37.72 15.58 35.9 135.65-41.06 157.33-56.21z" fill="#f44e4e"/><path d="m1201.86 590.31c3.61-3.45 7.32-7.8 6.71-12.76-.64-5.18-6.03-8.7-11.23-9.05-5.21-.35-10.24 1.7-15.05 3.7-2.92-3.91 1.44-9.08 5.5-11.78 18.11-12.06 41.15-22.75 45.56-44.06.37-1.78.55-3.77-.47-5.28-1.01-1.5-2.93-2.08-4.72-2.3-10.85-1.37-20.73 6.24-31.51 8.07-11.86 2.01-23.82-3.12-35.85-2.77-9.69.28-18.88 4.08-27.81 7.82-16.6 6.95-33.63 14.18-46.47 26.78-19.29 18.93-46.62 73.89-6.03 84.58 39.24 10.35 93.9-16.73 121.37-42.95z" fill="#fdc510"/><path d="m1055.7 531.19c-.45 0-.89-.16-1.25-.48-.77-.69-.84-1.88-.15-2.65l94.07-105.25c.69-.77 1.88-.84 2.65-.15s.84 1.88.15 2.65l-94.07 105.25c-.37.42-.88.63-1.4.63z" fill="#fff"/><path d="m1107.26 473.51c-.93 0-1.73-.69-1.86-1.64l-7.64-59.71c-.13-1.03.6-1.96 1.62-2.1.98-.12 1.96.59 2.1 1.62l7.64 59.71c.13 1.03-.6 1.96-1.62 2.1-.08.01-.16.02-.24.02z" fill="#fff"/><path d="m1050.07 636.64c-.6 0-1.2-.29-1.56-.84-.57-.86-.34-2.03.53-2.6l106.46-70.62c.85-.57 2.02-.34 2.6.53.57.86.34 2.03-.53 2.6l-106.46 70.62c-.33.21-.69.31-1.04.31z" fill="#fff"/><path d="m1113.15 595.73c-.15 0-.31-.02-.47-.06-1-.26-1.6-1.28-1.34-2.29l11.95-45.91c.26-1 1.28-1.61 2.28-1.34 1 .26 1.6 1.28 1.34 2.29l-11.95 45.91c-.21.84-.98 1.4-1.81 1.4z" fill="#fff"/><path d="m565.01 601.35c-12.95-9.64-25.91-19.28-38.86-28.92-38.29-28.49-77.18-57.57-105.46-96.01-11.18-15.2-20.71-32.07-24.35-50.58-.75-3.81-1.17-8.03.89-11.32 3.51-5.58 11.66-5.19 18.12-3.87 19.38 3.97 38.28 10.29 56.16 18.76-10.77-39.84-57.88-58.97-75.83-96.13-2.91-6.03-5.01-12.93-3.16-19.36 1.19-4.13 3.93-7.69 7.2-10.49 11.1-9.52 27.63-10.39 41.55-5.94 13.92 4.46 25.86 13.46 37.5 22.3-16.04-11.67-28.66-27.98-35.94-46.44-3.01-7.65-5.07-16.49-1.52-23.9 6.01-12.57 24.53-13.32 36.66-6.47 23.41 13.21 30.89 42.66 37.57 68.7s18.17 55.35 43.83 63.36c3.08.96 6.43 1.66 8.71 3.94 4.44 4.45 2.19 12.33-2.16 16.87s-10.31 7.32-14.51 12c-9.41 10.49-7.24 26.91-2.17 40.06s12.57 26.05 12.13 40.14c-.55 17.52 4.18 38.36 5.09 55.86.42 7.95-13.93 10.28-12.05 18.01s2.16 16.59-2.67 22.92-16.21 7.53-20.18.64" fill="#5a54ff"/><path d="m589.01 579.65c-.65 0-1.28-.34-1.62-.94-40.35-69.99-117.32-203.11-120.97-208.08-.56-.57-.7-1.47-.3-2.2.5-.91 1.64-1.23 2.54-.74.61.33 2.02 1.11 121.97 209.15.52.89.21 2.04-.69 2.56-.29.17-.62.25-.93.25z" fill="#fff"/><path d="m537.49 490.46c-.1 0-.2-.01-.3-.02l-79.19-12.75c-1.02-.16-1.72-1.13-1.55-2.15.16-1.02 1.15-1.72 2.14-1.55l79.19 12.75c1.02.16 1.72 1.13 1.55 2.15-.14.92-.94 1.57-1.84 1.57z" fill="#fff"/><path d="m96.77 765.01c5.82-3.58 8.59-11.43 6.31-17.87-3.72-10.52-13.35-6.98-20.19-12.5-8.06-6.51 1.69-16.74 1.15-24.42-.59-8.45-8.2-16.62-10.49-24.78-5.26-18.78 16.09-4.76 22.18-6.95 2.55-.92 4.22-3.48 4.8-6.12 1.49-6.75-1.35-12.2 2.35-18.59 3.57-6.17 8.84-8.95 7.32-17.33-.86-4.74-3.79-9.09-3.71-13.91.02-1.38.41-2.93 1.62-3.61.91-.51 2.06-.37 3.05-.03 3.29 1.15 5.45 4.22 8.09 6.49 2.65 2.27 6.9 3.67 9.44 1.28 1.69-1.59 1.86-4.16 2.2-6.45.62-4.14 3.53-7.02 7.13-4.62 3.93 2.61 2.43 12.88 1.84 16.56-.94 5.84-2.36 11.9-.63 17.56 2.87 9.36 10.71-1.13 14.13-4.23 2.8-2.54 7.48-4.06 10.17-1.41 5.35 5.28-3.25 12.33-4.39 17.34-.54 2.38.16 5.23 2.27 6.46 6.19 3.59 11.43-2.8 12.37 6.74.64 6.54-5.27 12.78-1.6 19.31 3.21 5.71 13.89 8.14 9.66 16.16-2.59 4.92-13.75 4.7-13.16 11.7.38 4.57 7.25 6.64 7.25 11.22 0 3.45-4.01 5.49-7.46 5.66-3.45.18-7.07-.63-10.25.72-3.61 1.53-5.69 5.96-4.58 9.71.97 3.27 4.01 6.24 3.06 9.51-1.15 3.93-6.6 4.08-10.64 3.44-16.52-2.58-34.22-4.31-49.29 2.96z" fill="#f44e4e"/><path d="m127.98 764.19c-1.04 0-1.87-.84-1.87-1.87v-73.75c0-1.04.84-1.87 1.87-1.87s1.87.84 1.87 1.87v73.75c.01 1.03-.83 1.87-1.87 1.87z" fill="#fff"/><path d="m127.98 735.48c-.42 0-.83-.14-1.18-.42-.8-.65-.93-1.83-.27-2.63l19.35-23.85c.66-.81 1.84-.92 2.64-.27s.93 1.83.27 2.63l-19.35 23.85c-.37.46-.91.69-1.46.69z" fill="#fff"/><path d="m127.98 715.34c-.43 0-.86-.14-1.21-.44l-23.05-19.4c-.79-.67-.89-1.85-.23-2.64.67-.79 1.85-.89 2.64-.23l23.05 19.4c.79.67.89 1.85.23 2.64-.37.45-.89.67-1.43.67z" fill="#fff"/><path d="m93.54 754.67c3.03 20.16 5.77 41.24 10.87 60.69.42 1.62.92 3.32 1.95 4.36 1.21 1.23 2.87 1.25 4.39 1.22 8.8-.2 17.62.36 26.43.31 8.32-.04 15.2.63 16.07-13.19.3-4.79 1.06-53.39 5.48-53.39-.03 0-65.19 0-65.19 0z" fill="#978cff"/><path d="m152.77 766.72h-53.28c-6.63 0-12.05-5.42-12.05-12.05s5.42-12.05 12.05-12.05h53.28c6.63 0 12.05 5.42 12.05 12.05 0 6.62-5.42 12.05-12.05 12.05z" fill="#a7adff"/><path d="m1137.15 743c-1.73.86-4.43 1.35-8.38 1.35-106.25-.01-212.47-.04-318.74.25-53.22.14-106.45-.24-159.67-.12-26.88.06-53.76.25-80.63.7-13.44.23-26.88.52-40.32.89-9.88.27-21.87 2.11-31.28-2-3.21-1.4-6.24-3.28-7.52-6.73-.21-.82-.26-1.64-.16-2.48 1.04-7.16 12.01-19.18 16.32-25.11 8.85-12.17 17.9-25.41 33.77-29.63 9.23-2.45 18.97-2.41 28.55-2.35 168.09 0 336.19.93 504.27 1.45 10.54.03 23.55 1.58 30.88 9.63 9.32 10.23 17.52 21.3 25.06 32.76 4.55 6.85 15.45 17.62 7.85 21.39z" fill="#978cff"/><path d="m1064.84 686.41h-503.47c-24.73 0-44.96-20.23-44.96-44.96v-357.24c0-24.73 20.23-44.96 44.96-44.96h503.48c24.73 0 44.96 20.23 44.96 44.96v357.24c0 24.73-20.24 44.96-44.97 44.96z" fill="#a7adff"/><path d="m577.04 258.68c-25.64 0-46.62 20.98-46.62 46.62v244.37c151.74-91.06 300.15-187.29 443.46-290.99z" fill="#eff0fc"/><path d="m1046.61 258.68h-72.73c-143.32 103.69-291.72 199.93-443.46 290.99v52.82c0 25.64 20.98 46.62 46.62 46.62h469.57c25.64 0 46.62-20.98 46.62-46.62v-297.19c0-25.64-20.98-46.62-46.62-46.62z" fill="#e3e5fc"/><path d="m844.91 666.01h-42.53c-.76 0-1.38-.62-1.38-1.38v-.92c0-.76.62-1.38 1.38-1.38h42.53c.76 0 1.38.62 1.38 1.38v.92c0 .76-.62 1.38-1.38 1.38z" fill="#e3e5fc"/><path d="m572.99 254.26c2.286 0 4.14-1.854 4.14-4.14s-1.854-4.14-4.14-4.14-4.14 1.854-4.14 4.14 1.854 4.14 4.14 4.14z" fill="#e3e5fc"/><path d="m590.82 254.26c2.286 0 4.14-1.854 4.14-4.14s-1.854-4.14-4.14-4.14-4.14 1.854-4.14 4.14 1.854 4.14 4.14 4.14z" fill="#fff"/><path d="m608.81 254.26c2.286 0 4.14-1.854 4.14-4.14s-1.854-4.14-4.14-4.14-4.14 1.854-4.14 4.14 1.854 4.14 4.14 4.14z" fill="#4b369d"/><path d="m563.39 708.34h-16.64c-2.19 0-3.98-1.79-3.98-3.98v-2.63c0-2.19 1.79-3.98 3.98-3.98h16.64c2.19 0 3.98 1.79 3.98 3.98v2.63c0 2.19-1.79 3.98-3.98 3.98z" fill="#e3e5fc"/><path d="m604.3 708.34h-16.64c-2.19 0-3.98-1.79-3.98-3.98v-2.63c0-2.19 1.79-3.98 3.98-3.98h16.64c2.19 0 3.98 1.79 3.98 3.98v2.63c.01 2.19-1.79 3.98-3.98 3.98z" fill="#e3e5fc"/><path d="m645.22 708.34h-16.64c-2.19 0-3.98-1.79-3.98-3.98v-2.63c0-2.19 1.79-3.98 3.98-3.98h16.64c2.19 0 3.98 1.79 3.98 3.98v2.63c0 2.19-1.79 3.98-3.98 3.98z" fill="#e3e5fc"/><path d="m686.13 708.34h-16.64c-2.19 0-3.98-1.79-3.98-3.98v-2.63c0-2.19 1.79-3.98 3.98-3.98h16.64c2.19 0 3.98 1.79 3.98 3.98v2.63c0 2.19-1.79 3.98-3.98 3.98z" fill="#e3e5fc"/><path d="m727.04 708.34h-16.64c-2.19 0-3.98-1.79-3.98-3.98v-2.63c0-2.19 1.79-3.98 3.98-3.98h16.64c2.19 0 3.98 1.79 3.98 3.98v2.63c.01 2.19-1.79 3.98-3.98 3.98z" fill="#e3e5fc"/><path d="m767.96 708.34h-16.64c-2.19 0-3.98-1.79-3.98-3.98v-2.63c0-2.19 1.79-3.98 3.98-3.98h16.64c2.19 0 3.98 1.79 3.98 3.98v2.63c0 2.19-1.79 3.98-3.98 3.98z" fill="#e3e5fc"/><path d="m808.87 708.34h-16.64c-2.19 0-3.98-1.79-3.98-3.98v-2.63c0-2.19 1.79-3.98 3.98-3.98h16.64c2.19 0 3.98 1.79 3.98 3.98v2.63c0 2.19-1.79 3.98-3.98 3.98z" fill="#e3e5fc"/><path d="m849.79 708.34h-16.64c-2.19 0-3.98-1.79-3.98-3.98v-2.63c0-2.19 1.79-3.98 3.98-3.98h16.64c2.19 0 3.98 1.79 3.98 3.98v2.63c0 2.19-1.79 3.98-3.98 3.98z" fill="#e3e5fc"/><path d="m890.7 708.34h-16.64c-2.19 0-3.98-1.79-3.98-3.98v-2.63c0-2.19 1.79-3.98 3.98-3.98h16.64c2.19 0 3.98 1.79 3.98 3.98v2.63c0 2.19-1.79 3.98-3.98 3.98z" fill="#e3e5fc"/><path d="m931.61 708.34h-16.64c-2.19 0-3.98-1.79-3.98-3.98v-2.63c0-2.19 1.79-3.98 3.98-3.98h16.64c2.19 0 3.98 1.79 3.98 3.98v2.63c.01 2.19-1.79 3.98-3.98 3.98z" fill="#e3e5fc"/><path d="m972.53 708.34h-16.64c-2.19 0-3.98-1.79-3.98-3.98v-2.63c0-2.19 1.79-3.98 3.98-3.98h16.64c2.19 0 3.98 1.79 3.98 3.98v2.63c0 2.19-1.79 3.98-3.98 3.98z" fill="#e3e5fc"/><path d="m1013.44 708.34h-16.64c-2.19 0-3.98-1.79-3.98-3.98v-2.63c0-2.19 1.79-3.98 3.98-3.98h16.64c2.19 0 3.98 1.79 3.98 3.98v2.63c0 2.19-1.79 3.98-3.98 3.98z" fill="#e3e5fc"/><path d="m1054.35 708.34h-16.64c-2.19 0-3.98-1.79-3.98-3.98v-2.63c0-2.19 1.79-3.98 3.98-3.98h16.64c2.19 0 3.98 1.79 3.98 3.98v2.63c.01 2.19-1.78 3.98-3.98 3.98z" fill="#e3e5fc"/><path d="m299.87 450.5h-160.09c-27.82 0-50.58-22.76-50.58-50.58s22.76-50.58 50.58-50.58h160.09c27.82 0 50.58 22.76 50.58 50.58 0 27.81-22.76 50.58-50.58 50.58z" fill="#e3e5fc"/><path d="m196.64 424.02c-.94 0-1.88-.35-2.61-1.06l-22.34-21.72 22.27-22.76c1.45-1.48 3.82-1.51 5.3-.06s1.5 3.82.06 5.3l-17.02 17.39 16.95 16.48c1.48 1.44 1.51 3.81.07 5.3-.72.75-1.7 1.13-2.68 1.13z" fill="#a7adff"/><path d="m239.13 424.02c-.94 0-1.89-.35-2.62-1.07-1.48-1.45-1.5-3.82-.06-5.3l17.02-17.39-16.95-16.48c-1.48-1.44-1.51-3.81-.07-5.3s3.81-1.52 5.3-.08l22.34 21.72-22.27 22.76c-.74.76-1.71 1.14-2.69 1.14z" fill="#a7adff"/><path d="m206.19 441.16c-.38 0-.78-.06-1.17-.19-1.96-.64-3.04-2.76-2.39-4.73l23.4-71.49c.64-1.97 2.74-3.05 4.73-2.39 1.96.64 3.04 2.76 2.39 4.73l-23.4 71.49c-.51 1.57-1.98 2.58-3.56 2.58z" fill="#a7adff"/><g fill="#4b369d"><path clip-rule="evenodd" d="m1091.59 138.14h70.73v-70.73h-70.73zm66.98-3.75h-63.23v-63.23h63.23z" fill-rule="evenodd"/><path d="m1092.14 134.945h94.7191v3.74996h-94.7191z" transform="matrix(.70710678 -.70710678 .70710678 .70710678 224.459875 811.784075)"/><path d="m1092.14 70.6132h3.74996v94.7191h-3.74996z" transform="matrix(.70710678 -.70710678 .70710678 .70710678 269.949327 792.941727)"/><path clip-rule="evenodd" d="m1158.57 138.14h70.73v-70.73h-70.73zm66.98-3.75h-63.23v-63.23h63.23z" fill-rule="evenodd"/><path d="m1159.11 134.944h94.7191v3.74996h-94.7191z" transform="matrix(.70710678 -.70710678 .70710678 .70710678 244.075641 859.138724)"/><path d="m1159.11 70.6123h3.74996v94.7191h-3.74996z" transform="matrix(.70710678 -.70710678 .70710678 .70710678 289.565023 840.296405)"/><path clip-rule="evenodd" d="m957.64 807.92h70.73v-70.73h-70.73zm66.98-3.75h-63.23v-63.23h63.23z" fill-rule="evenodd"/><path d="m958.172 804.723h94.7191v3.74996h-94.7191z" transform="matrix(.70710678 -.70710678 .70710678 .70710678 -288.383009 913.227828)"/><path d="m958.179 740.398h3.74996v94.7191h-3.74996z" transform="matrix(.70710678 -.70710678 .70710678 .70710678 -242.896315 894.392422)"/><path clip-rule="evenodd" d="m957.64 740.94h70.73v-70.73h-70.73zm66.98-3.75h-63.23v-63.23h63.23z" fill-rule="evenodd"/><path d="m958.171 737.744h94.7191v3.74996h-94.7191z" transform="matrix(.70710678 -.70710678 .70710678 .70710678 -241.021997 893.609426)"/><path d="m958.178 673.419h3.74996v94.7191h-3.74996z" transform="matrix(.70710678 -.70710678 .70710678 .70710678 -195.535303 874.77402)"/><path clip-rule="evenodd" d="m957.64 673.96h70.73v-70.73h-70.73zm66.98-3.74h-63.23v-63.23h63.23z" fill-rule="evenodd"/><path d="m958.177 670.772h94.7191v3.74996h-94.7191z" transform="matrix(.70710678 -.70710678 .70710678 .70710678 -193.663884 873.998024)"/><path d="m958.177 606.44h3.74996v94.7191h-3.74996z" transform="matrix(.70710678 -.70710678 .70710678 .70710678 -148.174291 855.155618)"/><path clip-rule="evenodd" d="m957.64 606.98h70.73v-70.73h-70.73zm66.98-3.74h-63.23v-63.23h63.23z" fill-rule="evenodd"/><path d="m958.176 603.793h94.7191v3.74996h-94.7191z" transform="matrix(.70710678 -.70710678 .70710678 .70710678 -146.302872 854.379622)"/><path d="m958.176 539.461h3.74996v94.7191h-3.74996z" transform="matrix(.70710678 -.70710678 .70710678 .70710678 -100.813278 835.537216)"/><path clip-rule="evenodd" d="m957.64 540.01h70.73v-70.73h-70.73zm66.98-3.75h-63.23v-63.23h63.23z" fill-rule="evenodd"/><path d="m958.175 536.814h94.7191v3.74996h-94.7191z" transform="matrix(.70710678 -.70710678 .70710678 .70710678 -98.94186 834.76122)"/><path d="m958.175 472.482h3.74996v94.7191h-3.74996z" transform="matrix(.70710678 -.70710678 .70710678 .70710678 -53.452266 815.918814)"/><path clip-rule="evenodd" d="m957.64 473.03h70.73v-70.73h-70.73zm66.98-3.75h-63.23v-63.23h63.23z" fill-rule="evenodd"/><path d="m958.174 469.835h94.7191v3.74996h-94.7191z" transform="matrix(.70710678 -.70710678 .70710678 .70710678 -51.580847 815.142818)"/><path d="m958.174 405.503h3.74996v94.7191h-3.74996z" transform="matrix(.70710678 -.70710678 .70710678 .70710678 -6.091254 796.300412)"/><path clip-rule="evenodd" d="m957.64 406.05h70.73v-70.73h-70.73zm66.98-3.75h-63.23v-63.23h63.23z" fill-rule="evenodd"/><path d="m958.174 402.856h94.7191v3.74996h-94.7191z" transform="matrix(.70710678 -.70710678 .70710678 .70710678 -4.219542 795.525124)"/><path d="m958.181 338.531h3.74996v94.7191h-3.74996z" transform="matrix(.70710678 -.70710678 .70710678 .70710678 41.267152 776.689717)"/><path clip-rule="evenodd" d="m957.64 339.07h70.73v-70.73h-70.73zm66.98-3.75h-63.23v-63.23h63.23z" fill-rule="evenodd"/><path d="m958.18 335.884h94.7191v3.74996h-94.7191z" transform="matrix(.70710678 -.70710678 .70710678 .70710678 43.13857 775.913722)"/><path d="m958.18 271.552h3.74996v94.7191h-3.74996z" transform="matrix(.70710678 -.70710678 .70710678 .70710678 88.628164 757.071315)"/><path clip-rule="evenodd" d="m957.64 272.09h70.73v-70.73h-70.73zm66.98-3.74h-63.23v-63.23h63.23z" fill-rule="evenodd"/><path d="m958.179 268.905h94.7191v3.74996h-94.7191z" transform="matrix(.70710678 -.70710678 .70710678 .70710678 90.499583 756.295319)"/><path d="m958.179 204.573h3.74996v94.7191h-3.74996z" transform="matrix(.70710678 -.70710678 .70710678 .70710678 135.989176 737.452913)"/><path clip-rule="evenodd" d="m957.64 205.12h70.73v-70.73h-70.73zm66.98-3.75h-63.23v-63.23h63.23z" fill-rule="evenodd"/><path d="m958.178 201.926h94.7191v3.74996h-94.7191z" transform="matrix(.70710678 -.70710678 .70710678 .70710678 137.860595 736.676917)"/><path d="m958.178 137.594h3.74996v94.7191h-3.74996z" transform="matrix(.70710678 -.70710678 .70710678 .70710678 183.350188 717.834511)"/><path clip-rule="evenodd" d="m957.64 138.14h70.73v-70.73h-70.73zm66.98-3.75h-63.23v-63.23h63.23z" fill-rule="evenodd"/><path d="m958.177 134.947h94.7191v3.74996h-94.7191z" transform="matrix(.70710678 -.70710678 .70710678 .70710678 185.221607 717.058515)"/><path d="m958.177 70.615h3.74996v94.7191h-3.74996z" transform="matrix(.70710678 -.70710678 .70710678 .70710678 230.7112 698.216109)"/><path clip-rule="evenodd" d="m957.64 71.1601h70.73v-70.730046h-70.73zm66.98-3.7501h-63.23v-63.22995h63.23z" fill-rule="evenodd"/><path d="m958.176 67.9681h94.7191v3.74996h-94.7191z" transform="matrix(.70710678 -.70710678 .70710678 .70710678 232.582548 697.440143)"/><path d="m958.183 3.64319h3.74996v94.7191h-3.74996z" transform="matrix(.70710678 -.70710678 .70710678 .70710678 278.069179 678.604763)"/><path clip-rule="evenodd" d="m1024.61 138.14h70.73v-70.73h-70.73zm66.99-3.75h-63.23v-63.23h63.23z" fill-rule="evenodd"/><path d="m1025.16 134.946h94.7191v3.74996h-94.7191z" transform="matrix(.70710678 -.70710678 .70710678 .70710678 204.841181 764.422356)"/><path d="m1025.16 70.6141h3.74996v94.7191h-3.74996z" transform="matrix(.70710678 -.70710678 .70710678 .70710678 250.330703 745.579979)"/><path clip-rule="evenodd" d="m890.66 138.14h70.73v-70.73h-70.73zm66.98-3.75h-63.23v-63.23h63.23z" fill-rule="evenodd"/><path d="m891.205 134.941h94.7191v3.74996h-94.7191z" transform="matrix(.70710678 -.70710678 .70710678 .70710678 165.610205 669.700403)"/><path d="m891.198 70.616h3.74996v94.7191h-3.74996z" transform="matrix(.70710678 -.70710678 .70710678 .70710678 211.092798 650.855097)"/><path clip-rule="evenodd" d="m823.68 138.14h70.73v-70.73h-70.73zm66.98-3.75h-63.23v-63.23h63.23z" fill-rule="evenodd"/><path d="m824.226 134.942h94.7191v3.74996h-94.7191z" transform="matrix(.70710678 -.70710678 .70710678 .70710678 145.991803 622.339391)"/><path d="m824.219 70.6168h3.74996v94.7191h-3.74996z" transform="matrix(.70710678 -.70710678 .70710678 .70710678 191.474538 603.494026)"/><path clip-rule="evenodd" d="m754.53 138.14h73.37v-73.37zm69.62-3.75h-60.58l60.58-60.58z" fill-rule="evenodd"/><path d="m757.717 134.941h94.7191v3.74996h-94.7191z" transform="matrix(.70710678 -.70710678 .70710678 .70710678 126.512475 575.310133)"/><path d="m757.18 169.75h3.75v236.17h-3.75z"/><path d="m772.13 423.93h-23.56c-6.73 0-12.24-5.51-12.24-12.24v-23.56c0-6.73 5.51-12.24 12.24-12.24h23.56c6.73 0 12.24 5.51 12.24 12.24v23.56c0 6.73-5.51 12.24-12.24 12.24z"/><path d="m752.11 475.05c-15.17 0-23.66-12.97-25.13-25.07l3.72-.45c1.28 10.51 8.53 21.78 21.41 21.78h.14c10.1-.07 20.92-7.51 20.93-18.48 0-13.19-13.39-18.68-13.52-18.74l-1.18-.47v-17.41h3.75v14.93c3.7 1.82 14.7 8.34 14.7 21.68 0 13.63-12.8 22.15-24.65 22.23-.06 0-.12 0-.17 0z"/></g><path d="m893.44 189.27h-194.3c-12.52 0-22.76-10.24-22.76-22.76s10.24-22.76 22.76-22.76h194.3c12.52 0 22.76 10.24 22.76 22.76-.01 12.52-10.25 22.76-22.76 22.76z" fill="#978cff"/><path d="m1259.09 878.44h-303.8c-21.12 0-38.41-17.28-38.41-38.41v-17.24c0-21.12 17.28-38.41 38.41-38.41h303.8c21.12 0 38.41 17.28 38.41 38.41v17.24c-.01 21.12-17.29 38.41-38.41 38.41z" fill="#a7adff"/><path d="m1212.37 822.23h-153.63c-4.64 0-8.43-3.79-8.43-8.43s3.79-8.43 8.43-8.43h153.63c4.64 0 8.43 3.79 8.43 8.43s-3.79 8.43-8.43 8.43z" fill="#fff"/><path d="m1140.64 855.02h-81.9c-4.64 0-8.43-3.79-8.43-8.43s3.79-8.43 8.43-8.43h81.9c4.64 0 8.43 3.79 8.43 8.43 0 4.63-3.79 8.43-8.43 8.43z" fill="#fff"/><path d="m986.14 862.51c15.78 0 28.57-12.791 28.57-28.57s-12.79-28.57-28.57-28.57c-15.779 0-28.57 12.791-28.57 28.57s12.791 28.57 28.57 28.57z" fill="#fff"/><path d="m609.04 691.99c-1.71.72-3.41 1.44-5.12 2.16 2.65-21.12 2.73-42.43 3.58-63.67.27-6.73-1.81-20.94 4.24-23.92 7.83-3.86 17.11 4.11 25.04.53 8.96-4.05 7.29-14.5 9.02-22.48 1.45-6.67 10.51-39.13 20.53-22.96 15.12-9.69 28.05-31.36 46.92-34.2 3.44-.52 7.41.75 8.98 3.86.92 1.83.89 3.98.66 6.02-.54 4.86-2.11 9.6-4.57 13.82-1.64 2.82-3.7 5.45-4.69 8.56s-.62 6.97 1.94 8.99c2.23 1.76 5.34 1.63 8.13 2.12 2.79.5 5.93 2.45 5.64 5.27-.11 1.12-.76 2.1-1.39 3.04-28.35 41.93-41.69 93.08-81.82 126.14-6.08 5.01-12.9 9.73-20.73 10.61-9.16 1.03-18.24-3.51-24.78-10.01-6.54-6.49-10.94-14.78-15.14-22.98" fill="#5a54ff"/><path d="m712.16 762.54c17.79-3.7 36.64-8.37 49.03-21.66-10.31-1.65-20.62-3.3-30.93-4.95-1.39-.22-2.94-.54-3.75-1.7-1.32-1.89.25-4.43 1.91-6.03 10.61-10.25 26.29-12.73 39.6-19.08 3.94-1.88 8.11-4.68 8.8-9 .72-4.54-3-8.84-7.34-10.39-4.33-1.55-9.1-1.03-13.67-.49 8.86-10.95 17.72-21.9 26.59-32.85 1.63-2.02 3.33-4.2 3.55-6.78.46-5.39-6.1-9.17-11.4-8.08s-9.33 5.27-13 9.24c8.11-16.83 14.2-34.64 18.1-52.91 1.2-5.59 1.83-12.35-2.44-16.15-4.2-3.73-11.15-2.27-15.27 1.54-4.13 3.81-6.2 9.27-8.42 14.43-6.17 14.3-14.52 27.66-24.67 39.48-1.16 1.35-2.41 2.73-4.08 3.32-5.12 1.82-9.42-4.62-9.84-10.03-.42-5.42.54-11.59-3.07-15.65-4.12-4.64-12.16-3.37-16.6.96-4.44 4.32-6.21 10.63-7.81 16.62-2.68 10.07-5.36 20.13-8.04 30.2-4.34-3.71-8.87-7.52-14.36-9.1s-12.25-.27-15.32 4.55c-1.56 2.45-1.98 5.42-2.55 8.26-4.98 24.92-23.53 45.27-29.84 69.89-4.72 18.41 1.74 42.66 24.65 40.64 22.78-2.05 47.59-9.58 70.17-14.28z" fill="#fdc510"/><path d="m628.6 770.09c-.49 0-.98-.19-1.35-.58-.71-.75-.69-1.93.06-2.65l107.23-102.78c.75-.72 1.93-.69 2.65.05.71.75.69 1.93-.06 2.65l-107.23 102.78c-.36.35-.83.53-1.3.53z" fill="#fff"/><path d="m665.74 734.49c-.09 0-.18-.01-.26-.02-1.02-.14-1.74-1.09-1.6-2.11l6.79-48.71c.14-1.03 1.11-1.74 2.11-1.6 1.02.14 1.74 1.09 1.6 2.11l-6.79 48.71c-.13.94-.93 1.62-1.85 1.62z" fill="#fff"/><path d="m694.84 706.59c-.9 0-1.69-.65-1.84-1.56-.17-1.02.52-1.99 1.53-2.16l40.99-6.96c1.02-.15 1.99.51 2.16 1.54.17 1.02-.52 1.99-1.53 2.16l-40.99 6.96c-.1.01-.21.02-.32.02z" fill="#fff"/><path d="m615.88 685.79c-.39 0-.78-.12-1.11-.37-.83-.61-1.01-1.79-.4-2.62l71.28-96.75c.61-.84 1.79-1.01 2.62-.4s1.01 1.79.4 2.62l-71.29 96.75c-.36.5-.92.77-1.5.77z" fill="#fff"/><path d="m661.42 623.97c-.15 0-.31-.02-.47-.06-1-.26-1.6-1.28-1.34-2.29l11.11-42.63c.26-1 1.28-1.6 2.28-1.34s1.6 1.28 1.34 2.29l-11.11 42.63c-.22.85-.97 1.4-1.81 1.4z" fill="#fff"/><path d="m628.73 832.27h-404.38c-13.24 0-24.07-10.83-24.07-24.07v-292.86c0-13.24 10.83-24.07 24.07-24.07h404.38c13.24 0 24.07 10.83 24.07 24.07v292.86c0 13.24-10.83 24.07-24.07 24.07z" fill="#a7adff"/><path d="m616.98 803.83h-382.83c-12.75 0-23.18-10.43-23.18-23.18v-251.38c0-12.75 10.43-23.18 23.18-23.18h382.84c12.75 0 23.18 10.43 23.18 23.18v251.38c-.01 12.75-10.44 23.18-23.19 23.18z" fill="#e3e5fc"/><path d="m450.44 816.72h-31.74c-.77 0-1.4-.63-1.4-1.4s.63-1.4 1.4-1.4h31.74c.77 0 1.4.63 1.4 1.4.01.77-.62 1.4-1.4 1.4z" fill="#e3e5fc"/><path d="m224.43 502.73c1.745 0 3.16-1.415 3.16-3.16s-1.415-3.16-3.16-3.16-3.16 1.415-3.16 3.16 1.415 3.16 3.16 3.16z" fill="#e3e5fc"/><path d="m238.02 502.73c1.745 0 3.16-1.415 3.16-3.16s-1.415-3.16-3.16-3.16-3.16 1.415-3.16 3.16 1.415 3.16 3.16 3.16z" fill="#fff"/><path d="m251.74 502.73c1.745 0 3.16-1.415 3.16-3.16s-1.415-3.16-3.16-3.16-3.16 1.415-3.16 3.16 1.415 3.16 3.16 3.16z" fill="#4b369d"/><path d="m444.44 674.77h-192.1c-2.06 0-3.75-1.69-3.75-3.75s1.69-3.75 3.75-3.75h192.1c2.06 0 3.75 1.69 3.75 3.75s-1.68 3.75-3.75 3.75z" fill="#fff"/><path d="m444.44 691.96h-192.1c-2.06 0-3.75-1.69-3.75-3.75s1.69-3.75 3.75-3.75h192.1c2.06 0 3.75 1.69 3.75 3.75s-1.68 3.75-3.75 3.75z" fill="#fff"/><path d="m444.44 709.15h-192.1c-2.06 0-3.75-1.69-3.75-3.75s1.69-3.75 3.75-3.75h192.1c2.06 0 3.75 1.69 3.75 3.75s-1.68 3.75-3.75 3.75z" fill="#fff"/><path d="m444.44 728.53h-192.1c-2.06 0-3.75-1.69-3.75-3.75s1.69-3.75 3.75-3.75h192.1c2.06 0 3.75 1.69 3.75 3.75s-1.68 3.75-3.75 3.75z" fill="#fff"/><path d="m444.44 745.72h-192.1c-2.06 0-3.75-1.69-3.75-3.75s1.69-3.75 3.75-3.75h192.1c2.06 0 3.75 1.69 3.75 3.75s-1.68 3.75-3.75 3.75z" fill="#fff"/><path d="m444.44 762.91h-192.1c-2.06 0-3.75-1.69-3.75-3.75s1.69-3.75 3.75-3.75h192.1c2.06 0 3.75 1.69 3.75 3.75s-1.68 3.75-3.75 3.75z" fill="#fff"/><path d="m293.55 634.14h109.68c24.73 0 44.96-20.23 44.96-44.96v-8.04c0-24.73-20.23-44.96-44.96-44.96h-109.68c-24.73 0-44.96 20.23-44.96 44.96v8.04c-.01 24.73 20.23 44.96 44.96 44.96z" fill="#fff"/><path d="m535.38 707.7h22.08c24.73 0 44.96-20.23 44.96-44.96v-81.6c0-24.73-20.23-44.96-44.96-44.96h-22.08c-24.73 0-44.96 20.23-44.96 44.96v81.6c-.01 24.73 20.23 44.96 44.96 44.96z" fill="#fff"/><path d="m510.64 758.43h71.57c11.12 0 20.22-9.1 20.22-20.22s-9.1-20.22-20.22-20.22h-71.57c-11.12 0-20.22 9.1-20.22 20.22-.01 11.13 9.09 20.22 20.22 20.22z" fill="#fff"/></g></svg>